<svg xmlns="http://www.w3.org/2000/svg" viewBox="0 0 111.62 40.49"><defs><style>.cls-1{fill:#898989;}.cls-2{fill:#9fa0a0;}.cls-3{fill:#231815;stroke:#231815;stroke-miterlimit:10;}.cls-4{fill:#727171;}.cls-5{fill:#c9caca;}.cls-6{fill:#595757;}.cls-7{fill:#3e3a39;}.cls-8{fill:#22ac38;}.cls-9{fill:#8fc31f;}.cls-10{fill:#ea5514;}.cls-11{fill:#c30d23;}.cls-12{fill:#f39800;}.cls-13{fill:#00a0e9;}.cls-14{fill:#036eb8;}.cls-15{fill:#fff100;}.cls-16{fill:#601986;}.cls-17{fill:#956134;}.cls-18{fill:#dae000;}</style></defs><title>cparticle_1</title><g id="图层_2" data-name="图层 2"><g id="图层_1-2" data-name="图层 1"><circle class="cls-1" cx="11.26" cy="4.25" r="4.25"/><circle class="cls-2" cx="28.47" cy="4.25" r="2.79"/><circle class="cls-2" cx="31.27" cy="30.66" r="2.09"/><circle class="cls-3" cx="40.1" cy="38" r="1.34"/><circle class="cls-4" cx="32.65" cy="19.83" r="4.18"/><circle class="cls-5" cx="4.33" cy="21.76" r="4.33"/><circle class="cls-6" cx="18.51" cy="33.66" r="3"/><circle class="cls-1" cx="18.56" cy="18.71" r="3.06"/><circle class="cls-7" cx="46.13" cy="11.4" r="2.91"/><circle class="cls-1" cx="49.46" cy="27.33" r="3.33"/><circle class="cls-8" cx="64.07" cy="16.44" r="3.63"/><circle class="cls-9" cx="72.04" cy="32.93" r="3.9"/><circle class="cls-10" cx="80.49" cy="19.22" r="3.58"/><circle class="cls-11" cx="84.33" cy="29.94" r="2.93"/><circle class="cls-12" cx="93.26" cy="9.04" r="3.91"/><circle class="cls-13" cx="74.83" cy="4.6" r="3.52"/><circle class="cls-14" cx="92.9" cy="20.22" r="2.79"/><circle class="cls-15" cx="96.26" cy="36.57" r="3.91"/><circle class="cls-16" cx="107.65" cy="17.71" r="3.29"/><circle class="cls-17" cx="109.13" cy="5.49" r="2.49"/><circle class="cls-18" cx="103.72" cy="27.49" r="2.48"/></g></g></svg>