<svg xmlns="http://www.w3.org/2000/svg" viewBox="0 0 203.97 169.06"><defs><style>.cls-1{fill:#00a0e9;}</style></defs><title>login6</title><g id="图层_2" data-name="图层 2"><g id="图层_1-2" data-name="图层 1"><path class="cls-1" d="M98.81,145.85c.34,0-.57-1.43-.68-1.72C97.87,144.7,99,146.22,98.81,145.85Z"/><polygon class="cls-1" points="96.29 151.61 96.03 150.97 96.2 152.79 96.29 151.61"/><path class="cls-1" d="M92.18,153.87c1.78,2.27,1.26-1.23,2.48-.75l.44.5-.79-2.19C93.6,152.24,93.19,154.21,92.18,153.87Z"/><path class="cls-1" d="M87,149.69c.68.89,0,1.1.68,0a1.65,1.65,0,0,1-.23-.2A.92.92,0,0,1,87,149.69Z"/><path class="cls-1" d="M87.44,149.51c.39-.31-.74-.65,0,0Z"/><path class="cls-1" d="M85.76,151.18l.08-1.18c-.43-.51-1-.36-1.06-.88C84.47,149.92,84.9,150.42,85.76,151.18Z"/><path class="cls-1" d="M86.24,153.3l.09-.53C86.14,152.56,86,152.52,86.24,153.3Z"/><path class="cls-1" d="M86.52,151.65l-.19,1.12c.3.36.76,1.16.13-.44C86.82,153.1,86.54,152.32,86.52,151.65Z"/><path class="cls-1" d="M87.08,151.83c.62.37,1.23.48,1.14,1.66C89.11,152.54,88,150.88,87.08,151.83Z"/><path class="cls-1" d="M93.41,156.56l.83.49-.09-1C94.19,156.53,93,155.8,93.41,156.56Z"/><path class="cls-1" d="M83.94,150.51c.17.6.52,1.56.79,2.3,0-.25-.07-.5-.11-.74A6,6,0,0,1,83.94,150.51Z"/><path class="cls-1" d="M84.73,152.81c0,.37.07.76.08,1.15C85.07,154,85,153.45,84.73,152.81Z"/><path class="cls-1" d="M87.68,156.12l0-2.48L87.57,155a4.89,4.89,0,0,0,0,1.27Z"/><path class="cls-1" d="M83.53,150.64c0-.51-.1-1-.17-1.51.1.75.18,1.52.22,2.31Z"/><path class="cls-1" d="M83.29,151.05c-.05-1.56-.06-1.64-.11-3a22.67,22.67,0,0,1-.08,2.45C83.17,149.88,83.17,150,83.29,151.05Z"/><path class="cls-1" d="M82.92,152.07c.06-.35.13-.95.18-1.58Z"/><path class="cls-1" d="M84.34,153.88a15.78,15.78,0,0,0-.48-1.72c.12.58.25,1.16.38,1.74Z"/><path class="cls-1" d="M84.26,154l0,0H84Z"/><path class="cls-1" d="M84.36,153.87h0C84.38,154,84.4,154.1,84.36,153.87Z"/><path class="cls-1" d="M86.11,155.23c.21,1,0,2.26,1,3.37C86.88,157.4,86.35,156.74,86.11,155.23Z"/><path class="cls-1" d="M85,156l.44.2a8.5,8.5,0,0,1-.4-1.58C85,155.05,85,155.51,85,156Z"/><polygon class="cls-1" points="84.91 156.63 84.96 155.98 84.81 155.9 84.91 156.63"/><path class="cls-1" d="M83.17,153.77c-.1.9-.23,1-.38,1.24.13.33.3.45.46.37C83.27,154.75,83.31,153.64,83.17,153.77Z"/><path class="cls-1" d="M83.68,154.05v.12C83.7,154.32,83.71,154.36,83.68,154.05Z"/><path class="cls-1" d="M81.33,155.49l-.07.39.1-.38Z"/><path class="cls-1" d="M83.28,155.72c.14.31.21-.21.25-.83a1,1,0,0,1-.28.49C83.24,155.66,83.24,155.84,83.28,155.72Z"/><path class="cls-1" d="M82.57,153.13a8.54,8.54,0,0,0,0,1.06C82.61,153.57,82.65,152.59,82.57,153.13Z"/><path class="cls-1" d="M83.6,153.67v-.09C83.54,153.19,83.56,153.38,83.6,153.67Z"/><path class="cls-1" d="M83.6,153.67c0,.29,0,.78-.07,1.22a3.39,3.39,0,0,0,.14-.72Z"/><path class="cls-1" d="M76.73,169.06A7.14,7.14,0,0,1,77.89,167c.44-.49.76-.47.89.46,1-1.62,1.78-8,2.48-11.57a9.45,9.45,0,0,1-1.12,2.91,11.11,11.11,0,0,0,0,1.82A5,5,0,0,1,79.7,163c-1,1.19-.46-.59-.47-1.6a9.44,9.44,0,0,1-1.34,3.25c-.31.54-.66,1.12-1,1.79-.17.34-.33.69-.49,1.08a7,7,0,0,0-.35,1,14.83,14.83,0,0,0,1.22-1.07C77.14,168,76.6,168.65,76.73,169.06Z"/><path class="cls-1" d="M81.79,155.93l.16-.28a9,9,0,0,1,.16-2.56c-.34,1-.58,1.75-.75,2.41a2.31,2.31,0,0,0,.52.12Z"/><path class="cls-1" d="M82.48,155.44c-.27,2.09-.82,3.14-.83,5.29.59-.37.57-1.88.9-2.88-.38.41-.3.1-.18-.42a3.91,3.91,0,0,0,.09-1.76,2.38,2.38,0,0,1,.33-.66,3.26,3.26,0,0,1-.18-.82v.12h0v0c0,.24,0,.4,0,.26,0,0,0,0,0,0l-.09.79c-.12-.36,0-.53.09-.79l0-.3v0c-.19.44-.41.89-.66,1.34C82,155.9,82.2,155.78,82.48,155.44Z"/><path class="cls-1" d="M87.79,162.48a1.34,1.34,0,0,1-.17-.37C87.61,162.36,87.62,162.52,87.79,162.48Z"/><path class="cls-1" d="M87,161.73c0-.29-.11-1,.19-1,.39.38.26.8.44,1.35a2.12,2.12,0,0,0-.58-2.05v.27a5.48,5.48,0,0,1-1.59-2.52A19.49,19.49,0,0,0,87,161.73Z"/><path class="cls-1" d="M84,159.52c-.22.44-.46.89-.73,1.34.14.5.3,1,.48,1.46l-.06-1C84.22,161.47,84,160.3,84,159.52Z"/><path class="cls-1" d="M81.56,154.42l.61-2.29c-.31,1.08-.66,2.18-1.06,3.27C81.27,155.08,81.42,154.75,81.56,154.42Z"/><path class="cls-1" d="M81,154.77l.68-2c-.17.41-.34.82-.53,1.22Z"/><path class="cls-1" d="M81.34,83.52l-.27-.5A1.32,1.32,0,0,0,81.34,83.52Z"/><path class="cls-1" d="M80.23,85.86l.69.36C80.57,85.94,80.3,85.77,80.23,85.86Z"/><path class="cls-1" d="M80.4,137.36c1.56,0,3.9.22,2.19-.29l-1.69-.41C81.09,137.08,80.83,137.26,80.4,137.36Z"/><path class="cls-1" d="M80.24,109.12l-.55-.07,1.39,1Z"/><path class="cls-1" d="M73.77,106l1.3-.21A4.06,4.06,0,0,0,73.77,106Z"/><path class="cls-1" d="M85,69.91l-1.49-1C83.27,69.47,84.2,69.54,85,69.91Z"/><path class="cls-1" d="M77,151.33a5.44,5.44,0,0,0,1.06-.94C77,151,75.49,152.07,77,151.33Z"/><path class="cls-1" d="M97.88,91.7A1.77,1.77,0,0,0,97,91,1.37,1.37,0,0,0,97.88,91.7Z"/><path class="cls-1" d="M78.06,150l-.43.25c.31,0,.55,0,.44.16C78.85,149.9,79.32,149.64,78.06,150Z"/><path class="cls-1" d="M99.31,23.52l.21-.07C99.29,23.42,99.27,23.46,99.31,23.52Z"/><path class="cls-1" d="M113.08,5.73a2.57,2.57,0,0,1,.62.7C113.71,6.23,113.55,6,113.08,5.73Z"/><path class="cls-1" d="M79.54,153.19c.16-.06.16-.2,0,0Z"/><path class="cls-1" d="M75,161.71a6.39,6.39,0,0,0-.69.95A9.79,9.79,0,0,1,75,161.71Z"/><path class="cls-1" d="M67,150.85v0C66.6,151,66.67,151,67,150.85Z"/><path class="cls-1" d="M79,154.2c.13-.27.23-.5.3-.68A3.47,3.47,0,0,0,79,154.2Z"/><path class="cls-1" d="M79.66,153.24c0,.11,0,.18-.06.25C79.83,153.16,80,152.94,79.66,153.24Z"/><path class="cls-1" d="M79.36,153.2c.07,0,0,.14,0,.32a1.64,1.64,0,0,1,.2-.33A.48.48,0,0,1,79.36,153.2Z"/><path class="cls-1" d="M98.46,50l.18,0C98,49.45,98.11,49.62,98.46,50Z"/><path class="cls-1" d="M66.35,123.14l.07.07.07,0Z"/><path class="cls-1" d="M65.58,121.52c1.84,1.26,1.48,1.45.91,1.66l4.83,1.38Z"/><path class="cls-1" d="M83.28,77.65l-1.76.18c-2-1.93-.89-2.25-3.21-2.37,5,2.2-.73,3.19,4.22,5.41l-1.27.07c.11-.13-.17-.28-.06-.4-2.82,0,3.3,2.27,2,3.26a1.61,1.61,0,0,1-1.9-.28l.81,1.53c-.22.25-1.05-.2-.84-.44l-.25,1.69-.14-.08a23.09,23.09,0,0,1,2.1,2c-.88.08-.44-.42-1.11-.59L82.76,89c-1.45-.22-2.4-1.46-2-2-5.32-1.36,1,1.24-2.69,1.69l-.29-1.07c-3-.71-2.3.35-4.45.49,1,.19,5.23.12,6.07,1.57-.49.1-.81.36,0,1.29-1.78-.76-1.55-.09-1.71.56l-2.33-1.06c.39.94,1.61,1.41,2.5,2.25-.54.63-2.43,0-4-.5-.88,1,3.27.46,3.11,2-1.32.58-.66,1.69.24,3.46-1.1.33-1.38-.74-2.16-.79l1.61,1.42c-.11.13-.66-.17-.94-.32.5.82,2.33,1.06,2.62,2.13,2.49,1.33-4.49,0-2,2.29-.77,0-1.39-.74-2.33-1a14,14,0,0,0,3,4l-2,.3c2.07,0,3.78,1.84,5.17,3.35,1,.11,1.8.22,2.21.23l.74,1.78a5.63,5.63,0,0,1-2.11-1.1c.16.16.32.33.47.46-1,.08-2.32-.72-3.5-1.6l1.64.16a19.66,19.66,0,0,0-4.17-2.39,1.32,1.32,0,0,1,.46.68,3.68,3.68,0,0,0-.93-.51c-.26-.06.2.29.72.75L73,106.76l1,.51-2.33,1c2.15,2.3,5.63,5,5.94,7.25-1.74-1.25-3.12-1.39-5.4-2.36,2.64.49-.43-1.88.47-2.65-.46.4-1.51-.16-1.83-.45l1.48,2.65c-1.86-.8-1.56-.2-2.53-.06,3.85,1.17,2,2.32,2.8,3.49-1.26-.46-2.47-1.14-1.82-1.9-3.18-.16,3.87,3,1.11,3,.06-.22.3-.26-.3-.6.91.94-.46,1.8-1.43,1.08l.06-.22a3.64,3.64,0,0,0,1.38,5.75c-.42-.14-3.76-1.65-4.37-2q4.86,3.33,9.75,6.57c-2.65-1.24-9.5-2.81-10.59-4.58-.52.19-1.14.45-.44,1.53.48-.09,4.18.89,4.31,1.3-3.38-.26-1.86,0-4.87.12.72-.14,4.88,1.83,4.54,2.32-.61-.32-4.27-1.49-4.64-1.85l3.74,2.9c-.65-.61-3.57-1.34-4.89-1.44.89.14-.5,1.19-.21,1.72l1.19-.26c-1.2,1.39,5.45,3.61,4.73,5.06-.83-.47-5.29-2.24-6.09-1.59,2.06,1.1,10.05,5,11.39,6.71l-1.34-.11L75,141a79.38,79.38,0,0,1-12-7.33c-1.19.31-1.54-.29-1.71.69A1.53,1.53,0,0,1,59.66,133c-.48.67-1,1.34-1.43,2,2.61.64,2.11,2.46,4.3,2.95-.69-1-1.34-2.09-2-3.16,2.6.69,6.92,3.49,6.08,4.83-1.14.11-4.55-1.51-5.42-1.72.83.45,1.32,1.94.65,1.93l-1.23-1c-1.21.67,3.11,2.27.37,2.77-.25.32-3.63.41-2.09.81,3.14,0,12.43,1.91,14.62,2.72-.11,0-.91.3-1.89.57s-2.08.5-2.87.61a9.78,9.78,0,0,1-4-.66c-1.33-.44-2.61-1-3.69-.79a5.23,5.23,0,0,1,1.81.88c-.71.42-2.23-.46-2.09.69,2.71.37-.52,2.18,2.24.65.66,1-.73,1-.72,2.24a10.29,10.29,0,0,1,3.75.19,11.18,11.18,0,0,1,3,.79,9.68,9.68,0,0,0-2.09.54c-.39,1.62-1.67,2.92-1.64,4.57-.64.39-1.34,1.57-2.48,1.71.48.06,1.39-.12,1.5.36-2.06,2.17-.5-1-3.06,1.06,1.5-.63,2.27.45,3.3.63,2.15-1.53.2-1.83-.84-2.21a25.26,25.26,0,0,1,4.86-1.52,20.23,20.23,0,0,1,3.86-.6c1,.24-2.17,1.87-1.65,1.69-.12,1.12,1.5.35,2.8-.43s2.34-1.53,1.39.08a25.37,25.37,0,0,1-2.85,3.16c-1,.91-1.88,1.67-2.57,2.48-.6,0-.4-.72-.11-1.38s.75-1.36.61-1.6c-.26.51-.51,1-.76,1.56-.78.36-1.56.15-1-.68a2.79,2.79,0,0,0-.48.79,2,2,0,0,0-.08.74,4.84,4.84,0,0,0,.4,1.58,12.3,12.3,0,0,1,1.25,3.58,11.2,11.2,0,0,0,1-.52,1.72,1.72,0,0,0,.47-.41,3.77,3.77,0,0,0,.47-.76l-.63,0a5,5,0,0,1,1.76-2,2.21,2.21,0,0,0,1.09-1.36c.69-.46,1.54-1.21,2.14-1.63s1-.57,1,.15l-1.51,3.06c.44-.89.53-2-.17-1.21.52-.56.18.58.12,1.4s.11,1.3,1.24-.65c.16-.76.34-1.52.55-2.27a28.62,28.62,0,0,0,1.93-2.5c.68-.93,1.14-1.61,1.15-1.08.49-1.54.45-1.45.41-1.43s0,0,0-.23.21-.7.54-1.6c-.69,1.85-.93,2.13-1.12,2.12s-.34-.56-1.48,2.21a19.5,19.5,0,0,0,1.11-3,8.06,8.06,0,0,1,1.08-2.47c-.59,1-1.08,1.9-1,1.28-.19.27-.44.6-.59.79l0-.08-.06.12c-.11.13-.13.16,0,0-.22.45-.49,1-.81,1.54-1.55,2.09-2,1.54-3,2.37.16-.63.86-.91,1.51-2-.48.44-1,.86-1.46,1.26.78-1,1.35-1.87,1.9-2.6a7.22,7.22,0,0,1,1.63-1.67c0-.12-.07-.23-.1-.36.83-1.16,1.16-1.65.38-1.12.34-.42-2.08,1.32-.65.28a7.32,7.32,0,0,1-1.26.33l.46-.33c0-.34-.76-.12-1.18-.27s-.43-.62,1.27-1.6c-.47,0-1,0-.49-.52l1.62-.49c-.28,0,.14-.27.41-.43s.41-.25-.42-.19c2.16-.38,2.4-.44,2.21-.56s-.79-.35-.4-.4l-2-.32c0-.06,0-.11,0-.24a3,3,0,0,0-.15-.54,12.43,12.43,0,0,0-.72-1.35l-1.76-.34c-1.27-1.09,1.68-1.64,1.83-2.86.64.26.38.51-.07.62,2.14-.18,1.62-1.09,1-2.07s-1.37-2,.25-2.23c-.52-.52-.23-.69.27-.78,0,0,0,.07.06.11a.23.23,0,0,0,.06-.13c.34,0,.74-.08,1.06-.15a4.41,4.41,0,0,0-1,.08,2,2,0,0,0-.34-1.23l1.88.45s0-.06,0-.1c.79-.14-.77-.59-2.21-.86a4.38,4.38,0,0,0-.93-.87c3.05.7-.64-1.35,2.64-.67-1.44-.79-.47-2.33-3.58-3.7.42.14.66.1.61.32.52-.31,1-.6.29-1.32l2.37.66L77.34,128a5.12,5.12,0,0,1,4.07,1.24c-2.2-2.38-.61-1.49-2.85-3.68l1.46.62c.1-.43-1.63-1.87-.31-1.65,3.15.16,2.23-4.47,5.77-5.8-4.51-1.31,2.39-.32-.91-1.78,1.08.28,1.79.18,2.52.93-.5-1.62,2.37-1.14-.1-3.15,1.08.29,1.39.88,2,1-.18-.19-.72-.76-.06-.63s.78.54,1.14.91c.34-1.3-2.74-2.74-5.64-4.07,1.66,0,1.59-.44-.14-1.72,1.06.19,2.22.25,2.23,1.17.33-.38,2.55-2.06.21-3.1.66.11.44-.54.21-.77.56-.92.81-.91,1-2l-.5.1c-2.67-1.59-.29-1.07-.29-2l.28.15c2.81-.9-.65-1.19,2.44-1.94l-1.8-.66c-3.72-1.8,2.9-.59,1.9-2.23L88.84,99c-1-1.12,5.82.67,6.54.32.38,0,.44.42.61.7,2.87-.51-2.22-1.19-2.28-2.52,1.33.34,3.05,1.63,3.6,1,1.16.07-3.12-3.88-.3-3.85a3.62,3.62,0,0,1-2.61-1.2c0-.93,4.54-.56,1.82-2.57A2.29,2.29,0,0,1,97,91c-.53-.93-.47-2.5-2-3.56,6.35,2-1.4-5,4.23-2.6l.47-2,.56.28c.87-1-.31-2-1.5-3,.5-.12,1,.3,1.23.44,1.85-1.28,1.68-1.57-.56-4.16l1.9.58c-.92-.82,3.93-1.38,2.42-4a2.41,2.41,0,0,1,.76.51c-1.44-2.77,6.94-2.8.44-6l-1.21-1.91c-1.12,1.49-2.86-1.31-4.23-1-.17-.79,2.64-1,2.71,0h-.39c3.44,1.57,2-1.63,4.39-.74,1-3.36,4-6,5.19-9.2l-2.91-.47.48-1.07c.74-.1,2.31.25,2,1,1.72,0-.94-1.75-1.55-1.94,1.58-1.24,3.1,1.56,3.31,1.1l0-.72-.37.06c-1-.87-2.2-1.26-1.79-2.18.74-.45,1.83.17,2,0,.2.06.32,0,.19-.35l.65-1.36-2.4,0c-.92-.92.49-1.29-2.22-1.32,4.17.08,2.71-5,4.07-5.24a2.37,2.37,0,0,1-.79-3.17c-.52.17-3.09-.21-2.6-1.07,5.18,1.43,2.62-1.24,6.56-1.29-2.65.21-.09-2.83-3.87-2.4.58-.7,2,.31,3.34-.07-1.75-2.25,2-4,1.64-6.54-.69-.12-1.82.13-2.78-.5,1.23-.25,2.44-.57,3.65-.91-.28-.58-4-.87-1.47-1.6-.6.09-1.51.2-1.7-.15,1.92-2.38,1.27-5.23.6-8a24.13,24.13,0,0,1-.73-4.42A26.68,26.68,0,0,1,115.25,6c-.7,1.58-1.15,1-1.55.4,0,.58-1.5.87-2.27,1.44a18.88,18.88,0,0,0,.63-3.67,1.62,1.62,0,0,1-2.21-.37A2,2,0,0,0,109,3.3a1.51,1.51,0,0,0-1.19.47c.31.06.63.11.93.2-1.46.67-2.34,2.13-3.37,3.58a18.1,18.1,0,0,1-3.66,4.1c1.49-.84.88.3.18,1.24a2.76,2.76,0,0,0-.59,1.08c0,.18.44.12,1.64-.19-.63.5-1.18.38-1.94.85,1.54-.53,2-.37,1.48.38l-.4.07a1.31,1.31,0,0,1,.24.94,2.56,2.56,0,0,1-.36,1c-.19.33-.42.66-.68,1.05a11,11,0,0,0-.76,1.26l1.88-.26c-.22.44-.82.56-1.29.77,1.44.21,1.48-.1,1.54-.42s.15-.65,1.75-.52c-1.9.43-1.88,1.18-2,2s-.28,1.56-2.47,1.62c-.07.69,2.21-.07,2.12.65l-1.19.09,1.5.31c-.28.47-1.79.56-2.79.47.13-.1-.24-.35-.32-.47-.72.22-.65.64-.46,1s.47.85.23.93l.84-.68c.75,2.35-1.12,4.78.86,7.33h.91c1.3,1.95-1.22,1.14-.83,3.08l-.19-.11c.8.54,1.14,1.12,1,1.59-.94-.67-2.16.43-3.18-.4,1.39,2.14,1.2,1.16,4.16,3.07l-1.51-.06c1.21.7,1.89.9,2,1.9-1.06-1-2.34,0-3.77-1.16-3.61,1.08,2.5,3.59-2.31,3.27,3.76,1.9,2.6-1.06,3.34-.36,1.4-.08,2.79,1.49,2.25,2-.25.6-5.37-.31-5.71,1.19.06-.14-.23-.24-.17-.38-1.17.28,1,1.48-.78,1.7,2.28,1.07-.39.85,2.62,1.85l-.31-1.59c.58,1,3.92,2.8,1.82,3.6A7.09,7.09,0,0,1,98.46,50c-1,.11.4.91-.65,1-3-1-.18-1.88-2.26-3.39-1.4,0,1.76,2.22-1.42.83,4,1.85-.94,1.29,1.92,3.27l-1.8-.63c.24.25,1,.85.85,1.13L92.92,51c1.74,1.44-2.25,1-1.41,2.11.46-1.63,2.3.34,3.84.07,1.77,2.81-5.1-.36-4.94,2.14-.16-.39,1.44-.77,2.13,0a4.42,4.42,0,0,1-2.43.57c-.14,1.6,1.93.4,2.81,1.41-2.36-.25.64,1,1.1,1.93l-1.82-.63c-1.76,1.29,3.64,1.79,1.68,2.83l-2.29-1.55.37,1L90,60c1.23,1.41.75,1.54-.14,2.17,1.35.27,3.25,1.32,3,2.09-1.27.12-1.61-.92-1.76.24-1-.66-2.36-1.45-.52-1.29-.57-.27-1-.66-1.61-.92-1.44.09-.8,1.26-.93,1.65a.74.74,0,0,1,.58-.25l1.92,2.48a2.61,2.61,0,0,1-1.7-.81c.08.39.82.92.81,1.44-1.42-.68-3-1.23-3.4-2.14l1.08,2.08c-.67-.15-2,.07-2.5-.33-1.15.46,2,3.08.5,3.71a1.42,1.42,0,0,1,.6.7c-.73.88-2.87,1-1.35,3l-2.88-.38c.2,1.17,3.66.42,4,2.38.37,1.45-2.39-.5-3.28-.41,1.09,1.09,3.35,3.16.82,3.29C82.85,78.15,83.34,78.05,83.28,77.65Zm-3.8,12.09c-.27-.38-1.22-1.33-.11-1C81.29,89.83,80.23,89.61,79.48,89.74Zm-3.39,19.67c-.51-.41-.11-.55.68-.57C76.83,109.12,76.66,109.33,76.09,109.41Zm1.34,44.38-.1.08C78,153,77.71,153.32,77.43,153.79ZM76.88,155a5.64,5.64,0,0,0,.75-.79c-.46.47-.56.4-.48.16C76.7,154.92,76.4,155.34,76.88,155ZM111.94,50.08l-.55.09C111,49.52,111.44,49.79,111.94,50.08Z"/><path class="cls-1" d="M74.52,106.35a6,6,0,0,1,1,.31A1.28,1.28,0,0,0,74.52,106.35Z"/><path class="cls-1" d="M85.27,70.1s0,0,0,0a1.82,1.82,0,0,0-.31-.16Z"/><path class="cls-1" d="M60,145.4a2.09,2.09,0,0,1,1.1-.53A.88.88,0,0,0,60,145.4Z"/><path class="cls-1" d="M81,152.61a6.77,6.77,0,0,1-.49.56c.15-.08-.09.45-.22.85A12.92,12.92,0,0,1,81,152.61Z"/><path class="cls-1" d="M80,167.16c.14-.29.22-.08.36-.4l.14-1.08C80.09,165.86,79.61,166.9,80,167.16Z"/><path class="cls-1" d="M77.47,160.73l-.08.2c-.76,1.81-.13,1.22.36.88,0,0,0,0-.06,0,1.22-2.86.56-1.94-.2-1.09Z"/><path class="cls-1" d="M77.86,161.74c.15-.08.28-.14.35,0C78.67,160.55,78.17,161.47,77.86,161.74Z"/><path class="cls-1" d="M78.18,154.4c-.3.53,1.79-2.22,1.26-1.47.89-1.11.31-.49-.39.24S77.55,154.77,78.18,154.4Z"/><polygon class="cls-1" points="74.85 167.54 75.77 164.98 74.88 166.5 74.61 166.96 74.64 167.04 74.85 167.54"/><path class="cls-1" d="M72.34,164.2a9.34,9.34,0,0,0,.19,1.1,1.77,1.77,0,0,1,.67-.71C72.84,164.29,72.79,163.5,72.34,164.2Z"/><path class="cls-1" d="M73.2,164.59c.18.16.39.24.74-.12A1.05,1.05,0,0,0,73.2,164.59Z"/><path class="cls-1" d="M73.49,167.82l0-.44c-.16-.1-.31-.24-.47-.35A6.34,6.34,0,0,0,73.49,167.82Z"/><path class="cls-1" d="M69.24,157a6.38,6.38,0,0,1-.71-.43c-.73.32-1.14.82-.8,1A2.27,2.27,0,0,0,69.24,157Z"/><path class="cls-1" d="M65.08,163.26a5.61,5.61,0,0,1,1.06-1.42l-2,1.59Z"/><path class="cls-1" d="M63.65,160.71c-.62.31-2.16-.49-1.66.83C62.63,161.28,63.4,162,63.65,160.71Z"/><polygon class="cls-1" points="67.03 144.73 67.01 144.97 71.02 145.69 67.03 144.73"/><path class="cls-1" d="M60.94,130.05c-1.28.78,2.3,1,.83,1.64.83.55,1.2-.48,1.91,0C62.93,130.77,63.58,130.61,60.94,130.05Z"/><path class="cls-1" d="M63.68,131.73a4.17,4.17,0,0,0,.48.52A1.91,1.91,0,0,0,63.68,131.73Z"/><path class="cls-1" d="M112.33,1.38c-.06-.45-.11-.93-.2-1.38-.13.48-.3,1-.46,1.45Z"/><path class="cls-1" d="M108.69,2.17,110.25.1c-.7.44-1.38.9-2,1.38C108.45,1.52,109,1.63,108.69,2.17Z"/><path class="cls-1" d="M73.93,89.4l.56.29c.66.18.77,0,1-.2Z"/><polygon class="cls-1" points="79.34 81.75 79.23 81.87 81.5 82.52 79.34 81.75"/><path class="cls-1" d="M79.52,73.58c-.21.25.13.78-.08,1C79.31,73.83,82.26,74.62,79.52,73.58Z"/><path class="cls-1" d="M145.75,154.85c-.45.05.41,1.5.48,1.8C146.72,156,145.55,154.46,145.75,154.85Z"/><polygon class="cls-1" points="150.28 148.33 150.49 148.99 150.61 147.03 150.28 148.33"/><path class="cls-1" d="M156,145.26c-1.93-2.18-1.8,1.55-3.31,1.21l-.48-.48.64,2.27C153.88,147.27,154.72,145.06,156,145.26Z"/><path class="cls-1" d="M162.09,148.85c-.76-.84.17-1.22-.89.12.13.07.18.12.27.17A1.88,1.88,0,0,1,162.09,148.85Z"/><path class="cls-1" d="M161.47,149.14c-.57.42.87.57,0,0Z"/><path class="cls-1" d="M163.92,146.93l-.28,1.33c.51.46,1.29.15,1.28.72C165.45,148,164.94,147.57,163.92,146.93Z"/><path class="cls-1" d="M163.57,144.7l-.19.6C163.6,145.49,163.76,145.51,163.57,144.7Z"/><path class="cls-1" d="M163,146.59l.39-1.29c-.35-.32-.84-1.1-.22.52C162.79,145.05,163,145.85,163,146.59Z"/><path class="cls-1" d="M162.27,146.51c-.76-.27-1.52-.27-1.25-1.58C159.74,146.15,161,147.75,162.27,146.51Z"/><path class="cls-1" d="M154.79,142.54l-1-.41,0,1.12C153.79,142.69,155.27,143.3,154.79,142.54Z"/><path class="cls-1" d="M169.58,145.1a22.5,22.5,0,0,0-1.63-1.8l-.19,1C168.28,144.42,169.05,144.37,169.58,145.1Z"/><path class="cls-1" d="M168,143.3l.28-1.42C167.41,142.26,167.54,142.77,168,143.3Z"/><polygon class="cls-1" points="162.04 141.92 161.79 144.64 162.29 141.73 162.04 141.92"/><polygon class="cls-1" points="172.88 142.99 173.19 144.48 172.85 142.14 172.88 142.99"/><path class="cls-1" d="M174.88,141.31c.31,1.2,1.62,1.27,1.65,2.12.47-.58.39-1.75.3-2.8C176.66,141.38,176.07,141.63,174.88,141.31Z"/><path class="cls-1" d="M176.81,139a7.8,7.8,0,0,0,0,1.59A3.54,3.54,0,0,0,176.81,139Z"/><path class="cls-1" d="M169.82,141.18a2.92,2.92,0,0,0,1.64,1L170.17,141Z"/><path class="cls-1" d="M170.13,140.94l0,0,.76-.41C170.83,140.62,170.59,140.74,170.13,140.94Z"/><path class="cls-1" d="M169.74,141.23l.08,0C169.7,141.06,169.65,141,169.74,141.23Z"/><path class="cls-1" d="M165.07,141.84c0-1.12.44-2.64-1.33-3.23C164,139.82,165,140.16,165.07,141.84Z"/><path class="cls-1" d="M168.14,139.72l-1.09.26c.26.37.78.81.8,1.37Z"/><polygon class="cls-1" points="168.27 138.98 168.14 139.72 168.55 139.62 168.27 138.98"/><path class="cls-1" d="M174.37,138.82a2,2,0,0,1,.72-1.66,3.92,3.92,0,0,0-1.8.66C173.53,138.31,173.87,139.25,174.37,138.82Z"/><path class="cls-1" d="M172.23,139.74c0-.05,0-.09,0-.14S172.06,139.51,172.23,139.74Z"/><path class="cls-1" d="M179.64,133.78l-.26-.18.16.24Z"/><path class="cls-1" d="M173,137.62c-.56,0-.55.49-.46,1.07a2.76,2.76,0,0,1,.73-.87C173.18,137.6,173.09,137.47,173,137.62Z"/><path class="cls-1" d="M177.62,137.46a5.47,5.47,0,0,0-1.2-.28C176.93,137.48,177.81,137.87,177.62,137.46Z"/><path class="cls-1" d="M172.66,139.9s0,.07,0,.1C173,140.22,172.86,140.08,172.66,139.9Z"/><path class="cls-1" d="M172.66,139.9a4.77,4.77,0,0,0-.1-1.21,2.51,2.51,0,0,0-.3.91A4.16,4.16,0,0,1,172.66,139.9Z"/><path class="cls-1" d="M174.17,124.13c.94,1.27.93,3.16-.9,2.42-.05,1.53,3.59,5.31,6.11,7a2.64,2.64,0,0,1-.52-2.47c-.84-.44-3.1-.16-3.27-1.84.58-1.49,1.23-.24,2.29,0-1.67-1.2-.43-3.35-2.52-5.4l-.26,1.53C174.8,125.07,174.68,124.25,174.17,124.13Z"/><path class="cls-1" d="M177.65,134.71l-.23.42a5.44,5.44,0,0,1,2.51.79,2.9,2.9,0,0,0-.39-2.08L177.67,135Z"/><path class="cls-1" d="M175.85,136.29c-.74-1.59-.35-2.79-2-3.92-.93.84.15,1.68,0,2.73,1.4-1.54.09,1.12,1.86,1.05a2.65,2.65,0,0,1-.63,1,6,6,0,0,1,1.33,0l-.11-.06h0v0c-.2-.12-.3-.21-.15-.16,0,0,0-.05,0-.06a3.57,3.57,0,0,1-.3-.58c.69-.06.34.31.3.58.05.07.08.15.14.22s0,0,0,0l1.11-2C176.92,135.2,176.51,135.56,175.85,136.29Z"/><path class="cls-1" d="M162.62,134.92a1.22,1.22,0,0,1,.27.3C162.88,135,162.84,134.83,162.62,134.92Z"/><path class="cls-1" d="M163.87,135.35c0,.28.29.92-.21,1-.62-.21-.44-.69-.77-1.16,0,.54-.16,1.58,1,1.8v-.28a6.29,6.29,0,0,1,3.07,1.55A21.78,21.78,0,0,0,163.87,135.35Z"/><path class="cls-1" d="M169.61,135.53l.89-1.66-1.56-.73.55.71C168.52,134.11,169.32,134.9,169.61,135.53Z"/><polygon class="cls-1" points="180.33 134.34 181.26 135.92 180.49 133.26 180.33 134.34"/><polygon class="cls-1" points="182.04 132.7 182.97 133.98 182.86 132.84 182.04 132.7"/><path class="cls-1" d="M109.66,109.07l-.29.58A1.5,1.5,0,0,0,109.66,109.07Z"/><path class="cls-1" d="M112.86,108l-.18-.77C112.67,107.72,112.72,108,112.86,108Z"/><path class="cls-1" d="M172.88,77.12c-.82-1.52-1.79-3.81-1.7-2l.24,1.74A1.15,1.15,0,0,1,172.88,77.12Z"/><path class="cls-1" d="M137.14,91.53l.32.48c0-.62.07-1.2.11-1.72Z"/><path class="cls-1" d="M138.21,98.65l-1.12-.91A4.16,4.16,0,0,0,138.21,98.65Z"/><path class="cls-1" d="M93.21,117.54l.19,1.84C94.18,119,93.49,118.37,93.21,117.54Z"/><path class="cls-1" d="M197.49,109.77a4.1,4.1,0,0,0,1.45-2C197.79,108.72,196.13,109.17,197.49,109.77Z"/><path class="cls-1" d="M104.71,91.28a1.4,1.4,0,0,0,0,1.13A1.17,1.17,0,0,0,104.71,91.28Z"/><path class="cls-1" d="M199.24,105.15a4.62,4.62,0,0,0-.44.45,3.47,3.47,0,0,1,.14,2.17C199.79,107.09,200.4,106.14,199.24,105.15Z"/><path class="cls-1" d="M31.32,146a2.53,2.53,0,0,1-.23-.12C31.18,146.09,31.25,146.07,31.32,146Z"/><path class="cls-1" d="M5.51,139.45a2.39,2.39,0,0,1,.68-.49C6,138.92,5.78,139.05,5.51,139.45Z"/><path class="cls-1" d="M190,126.26c-.3.5.08.19,0,0Z"/><path class="cls-1" d="M183.22,123.43a1.87,1.87,0,0,0-.47-.73A2.41,2.41,0,0,1,183.22,123.43Z"/><path class="cls-1" d="M188.29,100v0C188,100.11,188,100.08,188.29,100Z"/><path class="cls-1" d="M188.82,126.36a2.39,2.39,0,0,0,.87-.19A3,3,0,0,0,188.82,126.36Z"/><path class="cls-1" d="M189.5,126.83a4.57,4.57,0,0,0-.46.25C189.2,127.33,189.38,127.41,189.5,126.83Z"/><path class="cls-1" d="M190.44,125.59a1.76,1.76,0,0,1-.75.58c.16,0,.26,0,.29.09C190.07,126.12,190.2,125.92,190.44,125.59Z"/><path class="cls-1" d="M62.1,125.26a1,1,0,0,1-.16-.1C61.85,126,62,125.81,62.1,125.26Z"/><path class="cls-1" d="M161.41,95.58s0-.07.05-.09l-.07-.06Z"/><path class="cls-1" d="M160,97c.45-2.24.86-2,1.39-1.56l-.93-5Z"/><path class="cls-1" d="M102.29,112.39l1.59,1c-.3,2.87-1.5,2.39.25,4.06-1.84-5.11,3.73-2.06,2-7.19l1.08.82c-.21,0-.13.34-.34.35,2.22,2-.39-4,1.6-3.93.74.18,1.42.77,1.24,1.52l.87-1.74c.42,0,.65.88.23.92l1.88-1.14,0,.15a16.89,16.89,0,0,1,.38-3c.77.56-.08.63.28,1.23l.71-1.62c.92,1.18.41,2.78-.43,2.84,2.8,4.79.5-1.6,3.78.66l-.84,1c1.65,2.7,2.12,1.38,3.89,2.82-.57-.87-3.88-3.83-3.08-5.51.47.28,1,.31,1.31-1,.6,1.84,1.09,1.18,1.87.81l.71,2.46c.64-1,.18-2.22.36-3.47,1.06,0,1.83,1.8,2.54,3.33,1.67-.06-2-2.73-.28-3.73,1.58.56,2.19-.71,3.35-2.64,1.15.58.26,1.56.78,2.17l.27-2.21c.21,0,.31.62.36.93.48-1-.62-2.5.29-3.44-.41-2.8,3.29,3.42,3.83,0,.51.63.22,1.57.56,2.5a14.72,14.72,0,0,0,2.09-5c.56.43,1.12.89,1.68,1.35-1.38-1.68-.66-4.15,0-6.21-.54-.83-1-1.56-1.31-1.9l1.5-1.71a4.07,4.07,0,0,1,.24,2.37c.08-.23.15-.46.2-.67.83.79.8,2.31.65,3.8l-1-1.41a14.8,14.8,0,0,0,.27,4.82,1.38,1.38,0,0,1,.42-.8,2.74,2.74,0,0,0,.09,1.06c.12.25.18-.34.32-1l1,2.71-.14-1.13L142,98.92c.52-1.57.93-3.47,1.52-5.19a7.5,7.5,0,0,1,2.61-4c-.31,2.17.43,3.39.8,5.84-1.14-2.46-1.8,1.39-3.2,1.13.74.13.8,1.32.71,1.77.63-.93,1.27-1.83,1.92-2.74.3,2,.76,1.41,1.51,2.14C146.74,94,149.19,95,150,93.6c.26,1.32.23,2.72-1,2.59,1.74,2.77,1-4.93,2.64-2.6-.29.08-.47-.1-.49.59.51-1.32,2.3-.55,2.06.65l-.28.06c2,.26,5.8-.62,5.78-4,.06.44.14,4.12.09,4.81.38-2,.78-3.93,1.2-5.89s.86-3.87,1.32-5.81c-.08,2.93,1.6,9.8.15,11.54.48.39,1.07.84,1.95-.25-.33-.39-1.08-4.16-.66-4.46,1.4,3.18.95,1.69,2.54,4.37-.5-.6-.24-5.21.53-5.11-.08.69.29,4.52.05,5,.53-1.54,1.07-3.07,1.64-4.61-.44.84.07,3.81.52,5.06-.2-.89,1.54,0,1.95-.43l-.74-1c1,.32,1.42-1.26,1.93-2.89s1.07-3.32,2.12-3.13c-.34.91-.87,5.67-.06,6.29a46.42,46.42,0,0,1,2-6.44c1-2.6,2.72-5,4.25-5.5,0,.47.06.93.07,1.39a19.34,19.34,0,0,1,2.37-.78,41,41,0,0,0-4.81,5.86,29.56,29.56,0,0,0-1.92,3.43c-.48,1.06-.89,2-1.23,2.68a3.69,3.69,0,0,1,.23,1.19c0,.25.09.36.33.34a3.57,3.57,0,0,1-.34,1.37,1.37,1.37,0,0,1-.19.35.4.4,0,0,1-.18.14c.23.15.24.32.36.46a2.82,2.82,0,0,1,.23.46,5.9,5.9,0,0,1,1.19-2.41,6.75,6.75,0,0,0,1.38-2,9.31,9.31,0,0,0-2.28,2.23,13.39,13.39,0,0,1,1.87-4.46c.92-1.33,2.18-2.11,2.84-1.53a9.27,9.27,0,0,1-1.37,2.6c-.66,1-1.27,2-1.47,2.43.5-.82,1.79-1.13,1.49-.49a13.82,13.82,0,0,0-1.14,1c0,.41.29.15.74-.2.72-.58,1.85-1.27,1.08.25a5.66,5.66,0,0,1-.86,1.45c-.37.53-.67.9,0,.36,1.09-1.16,3.29-3.5,5.46-5.73A31.25,31.25,0,0,1,188.68,88a16.51,16.51,0,0,1-.19,2.45,8,8,0,0,1-1.18,3.12,9.37,9.37,0,0,1-3.51,2.07,11.12,11.12,0,0,0-3.29,2,5.89,5.89,0,0,1,1.84-.76c-.39.62-2,1.13-1.44,1.48,2.48-1.26.32,1.33,2.19-.83,1,.33-.2,1,.15,1.66a8.84,8.84,0,0,1,3.7-.76,5.12,5.12,0,0,1,3.27.84,7.21,7.21,0,0,0-1.93.66,4.32,4.32,0,0,1-.17,1.43,6.58,6.58,0,0,1-.44,1.2,7.85,7.85,0,0,0-.77,2.34c-.69.11-1.58.79-2.7.28.45.29,1.34.66,1.29,1.18-2.5.45-.14-1.13-3.07-.94,1.55.31,1.92,1.57,2.64,2.57,1.19.26,1.44-.17,1.27-.75a5.07,5.07,0,0,0-1.24-1.71,10.72,10.72,0,0,1,4.66,1.82,6.52,6.52,0,0,1,2.64,3.81c.06,2.24-2.34,0-2,.53-.94,1.48,0,2.75.78,4s1.29,2.38-.61,3a4.84,4.84,0,0,1-2.89-1.32,11.55,11.55,0,0,0-2.14-1.64c.06-1.57,2.29-1.09,2.7-2-.48.2-1,.37-1.47.54-.38-.74-.45-1.77.32-1.94-1.06,0-1.7,1-2.57,2.23s-1.91,2.47-3.34,2.75c.29.78.36,1.81,1.23,2.14.1-.26.18-.52.27-.78,1.8.57.84,2.71,2.11,2.48.2,1.61.67,3.92-1.16,4.32l-1.91-1.57c.51.5,1.74.36,1.51-.49.17.62-.85.45-1.66.44s-1.43.16-.61,1.58c.64.18,1.29.36,2,.52,0,1.65.68,4.57-.91,4.89,2.06,1.43.06-.4,2.69,1.07-1.49-1-.77-1.61-.12-2.18s1.23-1.11-.56-2c1.51.86,2.09.76,2.66.62a4,4,0,0,1,2.67,0c-.62-.54-1.48-.69-.29-1.37a4.37,4.37,0,0,1-.33-.7l.11,0h-.12c0-.13-.07-.15,0,0a2.75,2.75,0,0,1-1.35-.36,3.12,3.12,0,0,1-.16-2.36,4,4,0,0,0,.28-1.92c.76-.32.52.83,1.44,1.06-.15-.57-.32-1.14-.49-1.69,1.46,1.06,3.66.14,3.34,2.29.38-.43.74-.9,1.1-1.36,1.43-.26,2.61-1.34,2.42-2.54.81-.57-.68-2.88.21-1.54.12-1,.22-2.06.26-3.09l.42.15a5.4,5.4,0,0,0,.54-2.24c.08-.82,0-1.66,0-2.46a6.55,6.55,0,0,1,.4-2.36,5.81,5.81,0,0,1,1.69-2.32,5.62,5.62,0,0,1-.4-3.82l1.54-.41a2.5,2.5,0,0,1-.12-1.3c.06-.54.15-1.11.19-1.64.09-1.08,0-2.07-.85-2.19a3,3,0,0,0,1.36-2.42,6.27,6.27,0,0,0-.81-2.86c-1-1.9-2.63-3.5-3.14-4.84l-1.71,1.09a6.56,6.56,0,0,0-.8-1.08,9.47,9.47,0,0,0-1.08-.89,12.51,12.51,0,0,0-2.76-1.42l-1.11,1.42c-1,0-1.63-.72-2.28-1.7s-1.76-2.53-3.25-3c.47-.56,1.08-.09,1.34.5-.6-2.56-2.88-2.62-4.82-2.2a20.66,20.66,0,0,1-2.77.54,2.08,2.08,0,0,1-2-1,.92.92,0,0,1-1.52-.15.23.23,0,0,0,.16-.08.62.62,0,0,0-.25,0c-.26-.33-.52-.7-.81-1a3.79,3.79,0,0,0,.67,1,3.81,3.81,0,0,0-1.87.64l-.26-1.93a1.42,1.42,0,0,0-.16,0c-.66-.72-.52.91-.2,2.36a3.89,3.89,0,0,0-.84,1.16c-.56-3.11-1.6,1.08-2.36-2.22-.34,1.64-2.92,1.4-3,4.81,0-.44-.23-.64.08-.68-.66-.35-1.34-.7-1.85.3l-.44-2.43-1.18,3.37c-1-1.43-1.41-2.27-.69-4.21-1.84,3-1.61,1.19-3.08,4.25L157.59,82c-.62.14-1.39,2.36-1.9,1.1-.85-1.42-2.6-1.33-4.62-1.17s-4.26.54-6.29-.57c1.47,4.49-2-1.78-1.54,1.8-.4-1-1-1.58-.6-2.62-1.65,1.34-3.09-1.18-3.76,2-.42-1,.07-1.67-.24-2.27-.1.26-.39,1.06-.71.45s.08-1,.28-1.49c-1.85.57-1.34,3.93-.81,7.08-1.23-1.28-1.66-1-1.88,1.2-.54-1-1.32-1.9-.26-2.5a8.93,8.93,0,0,0-2.32,0c-.91.18-1.67.68-1.4,1.93-.35-.58-.93,0-1,.36a8,8,0,0,0-3,.6l.49.31c.23,3.12-1,1-2,1.59l0-.31c-3.13-1.44-.8,1.33-4-.39l.66,1.81c.91,4-2.88-1.7-3.9.24l.84.89c-.36,1.58-3.85-4.73-4.81-4.94-.29-.28.1-.64.26-1-2.83-1.63.48,2.49-.89,3.55-.7-1.2-.68-3.4-1.81-3.3-.88-.87-1.67,5.18-3.92,3.18.66.89,1.3,1.77.84,2.75-1,.7-4.25-2.68-4.14.77a1.73,1.73,0,0,1-.47-.7c-.55,1.1-2.22,2.31-2.09,4.16-3.12-6-3.93,5-6.11-.75l-2.4,1.29-.17-.61c-1.76.26-1.79,1.84-1.79,3.44-.52-.23-.47-.87-.56-1.18-2.79-.17-2.94.17-3.69,3.79l-1-1.74c-.07,1.27-4.59-1.45-5.92,1.69a2.16,2.16,0,0,1-.11-.92c-1.58,3.24-8.36-2.31-6.28,4.7l-.9,2.38c2.36-.48,1,3,2.37,3.68-.65.77-3.07-1-2.2-1.79l.31.25c-1.2-3.59-3.21,0-4.24-2.33-4.1,2.15-9.1,2.21-13,4l1.73,2.41-1.42.51c-.66-.44-1.49-1.82-.47-2.19-1.24-1.23-1,2-.76,2.63-2.41-.13-.77-3.42-1.38-3.2l-.69.59.33.22c-.11,1.38.39,2.55-.83,3-1-.16-1.18-1.43-1.52-1.39-.09-.18-.23-.22-.48.15l-1.81.63,1.71,1.72c-.24,1.4-1.65.7.31,2.64-3-3-7,1.88-8.24,1.12-.28,2-1.33,2.53-2.7,3,.53.27,1.9,2.49.65,2.76-2-5-3.08-1-5.71-4,2,1.87-2.85,2.15,0,4.76-1.12.08-1-1.76-2.23-2.53-1.25,3-5.44,1.25-7.83,3.25.27.64,1.21,1.37,1.11,2.6l-3-2.41c-.38.58,1.34,3.87-.74,2.19.4.46,1,1.15.76,1.53-6.86-.36-9.57,8-17.87,5,1.34.85.92,1.22.39,1.54.5.11.77,1.56,1.28,2.37L4,140.12c.79,2.56-2.33,1.38-1.42,3.76l.5-.77c.41,3.14,4.34,5.24,5.93,8.73-.47-3.57,5.08,3.06,4.63-2.16.74.5.23,1.27.84,1.95-.3-1.69.08-2.26,1.4-2.11l.07.42c2.6-1.77,4.53-.93,8.14-1.55L23,146.81c.78-.11,1.19.35,1.72.61-.53-2.95-1.95.81-2.69-2.37,2.64,3,4.76-2.35,7.35,1.25,1-.5-1.3-1.8-.25-2.3l.81.92-.43-1.5c.79-.12,1.8,1,2.28,1.91-.22,0-.34.49-.48.66,1.51.8,2.26-1.69,2.77-1.43l-1.32-.15c2.31-2.42,6.46-2.78,8.09-6.31l-.61-.69c1.33-2.54,2.11,0,4-1.82v.24a2,2,0,0,1,1.13-2c-.1,1.22,2,1.26,1.77,2.68,1.45-2.73.48-1.81.47-5.53l1,1.15c-.1-1.45-.37-2.11.59-3-.36,1.61,1.75,1.65,1.46,3.69,3.85,1.69,2.08-4.71,5.3-1-.74-4.22-3.09-1-2.87-2.1-1.12-.94-.47-3.19.47-3.2.81-.3,3.65,4,5.53,3-.2.08-.07.36-.27.44,1.18.58.77-2,2.41-.88-.61-2.46,1.21-.43-.05-3.34l-1.44,1.52c.63-1.23-.07-5,2.38-4.22a5.88,5.88,0,0,1-.1,2.22c.89.6.65-1,1.58-.4,1.25,2.92-1.84,1.68-1.84,4.37,1.1,1,1-3,2,.29-1.15-4.29,2.13-.43,2-4.07l.74,1.75c.08-.37.11-1.38.51-1.53l.39,2.55c.14-2.41,2.83.68,3.34-.84-2.08,1.07-1.47-1.83-3-2.65,1.51-3.54,3.66,3.75,6.17,1.54-.27.43-2-.32-1.73-1.41A4.57,4.57,0,0,1,74.78,126c1.76-1.28-1.14-1.62-.81-3.07,1.64,1.78.54-1.31,1.08-2.37l.83,1.74c2.74.1-1.12-3.91,1.51-3.48l.29,2.81.75-1.11.71,2.1c.44-2,1-1.79,2.33-1.74-.82-1.11-1.31-3.25-.35-3.76,1.14.74.38,1.84,1.66,1,.18,1.23.47,2.77-.87,1.43.2.6.19,1.25.38,1.84,1.27.86,1.93-.55,2.43-.78a1,1,0,0,1-.73-.18l.92-3.33a2,2,0,0,1,.58,1.8c.33-.38.25-1.31.79-1.73.48,1.5,1.17,3,.62,4l1.21-2.44c.41.56,1.74,1.28,1.72,1.92,1.42.37,1.39-4,3.29-3.42a1.35,1.35,0,0,1,.2-1c1.48-.23,3.38,1,4.14-1.59l2,2.22c1-1.1-2.56-2.78-.89-4.6,1.14-1.41,1.45,2,2.25,2.53.2-1.59.42-4.78,2.6-3.18C103.13,112.28,102.63,112,102.29,112.39Zm15-6.75c-.17.48-.38,1.86-1,.85C116,104.28,116.61,105.2,117.32,105.64Zm23-11c-.11.67-.53.44-1.09-.19C139.5,94.25,139.86,94.25,140.33,94.66Zm52.33,25.58a.47.47,0,0,0-.06-.09C193.76,119.74,193.33,119.87,192.66,120.24Zm-1.81,1.13a.83.83,0,0,0,.59.56c-.31-.4-.09-.77.31-1.1C191.26,120.66,190.83,120.65,190.85,121.37ZM52,115.76l.49.31C52.15,116.87,52.1,116.34,52,115.76Z"/><path class="cls-1" d="M138.09,97.82a5,5,0,0,1-.36-1A1.06,1.06,0,0,0,138.09,97.82Z"/><path class="cls-1" d="M93.18,117.21h-.06a1.69,1.69,0,0,0,.09.34Z"/><path class="cls-1" d="M179.83,98.5a4.27,4.27,0,0,1,.68-.83C180.11,97.94,179.83,98.22,179.83,98.5Z"/><path class="cls-1" d="M186.52,131l.52-1.18c-.35.48-.78.3-1.2.26C186.16,130.38,186.77,130.71,186.52,131Z"/><path class="cls-1" d="M171.9,127.52c0,.27-.23.2-.2.47l.57.7C172.73,128.28,172.63,127.45,171.9,127.52Z"/><path class="cls-1" d="M181.46,126.92c-1.15-1.16-1.27-.33-1.62.38a.18.18,0,0,1,.09-.08C181.24,129.09,181.36,128,181.46,126.92Z"/><path class="cls-1" d="M179.74,127.46a1,1,0,0,1-.49.46C179.77,128.67,179.59,127.89,179.74,127.46Z"/><path class="cls-1" d="M190.19,124c-.58,0,1.43,1.52.77,1.28.63.84.62-.09.34-.94S190.48,122.75,190.19,124Z"/><polygon class="cls-1" points="177.49 123.28 179 124.63 178.22 123.16 177.49 123.28"/><path class="cls-1" d="M182.45,120.54l-1.18.43a.75.75,0,0,1,.28.69C182.09,121.22,182.91,120.92,182.45,120.54Z"/><path class="cls-1" d="M181.55,121.66a.89.89,0,0,0-.41.88A1.68,1.68,0,0,0,181.55,121.66Z"/><path class="cls-1" d="M178.19,121.84l.52.09.66-.42C179,121.63,178.59,121.74,178.19,121.84Z"/><path class="cls-1" d="M189.38,110.31a10.91,10.91,0,0,0-.16-1.4c-.62-.31-1.12-.11-1,.41C188.6,109.74,188.68,110.27,189.38,110.31Z"/><path class="cls-1" d="M183,111.26a5.05,5.05,0,0,1,1.56.29l-2.19-1.16Z"/><path class="cls-1" d="M183.62,108.38c-.59-.35-1.46-1.8-1.66-.76C182.59,107.9,182.81,109,183.62,108.38Z"/><path class="cls-1" d="M184.73,93.36a1.89,1.89,0,0,1,.2.2L188.12,91C187,91.76,185.88,92.53,184.73,93.36Z"/><path class="cls-1" d="M171.21,97.85c1,1,.34-2.51,1.26-1.25.31-.95-.75-1-.46-1.85C171.29,95.74,170.94,95.17,171.21,97.85Z"/><path class="cls-1" d="M172,94.75a6.22,6.22,0,0,0,.38-.61A1.81,1.81,0,0,0,172,94.75Z"/><polygon class="cls-1" points="1.55 139.01 0.36 138.66 1.5 139.62 1.55 139.01"/><path class="cls-1" d="M1.37,142.5,0,140.28l.58,2.34C.71,142.42,1,142,1.37,142.5Z"/><path class="cls-1" d="M121.22,109.86l-.12-.62c-.33-.6-.54-.58-1-.56Z"/><polygon class="cls-1" points="109.49 111.83 109.7 111.81 108.53 109.74 109.49 111.83"/><path class="cls-1" d="M101.31,118.18c.41-.06.66-.72,1.07-.77C101.72,118.12,100.11,115.5,101.31,118.18Z"/><path class="cls-1" d="M202.39,165.38c.08.34,1.32-.8,1.58-.95C203.36,164.26,202.06,165.67,202.39,165.38Z"/><polygon class="cls-1" points="196.25 163.79 196.85 163.44 195.07 163.9 196.25 163.79"/><path class="cls-1" d="M193.32,160.06c-1.95,2.13,1.43,1.06,1.17,2.35l-.42.52,2-1.14C195.17,161.22,193.15,161.12,193.32,160.06Z"/><path class="cls-1" d="M196.58,154.24c-.77.81-1.09.17.09.68a2.47,2.47,0,0,1,.16-.26A.89.89,0,0,1,196.58,154.24Z"/><path class="cls-1" d="M196.83,154.66c.37.34.52-.84,0,0Z"/><path class="cls-1" d="M194.89,153.25l1.19-.1c.43-.52.18-1.07.69-1.2C195.92,151.76,195.5,152.28,194.89,153.25Z"/><path class="cls-1" d="M192.87,154.06h.55C193.59,153.84,193.61,153.71,192.87,154.06Z"/><path class="cls-1" d="M194.56,154.08l-1.14,0c-.31.36-1,.95.45.06C193.17,154.6,193.9,154.21,194.56,154.08Z"/><path class="cls-1" d="M194.47,154.67c-.25.67-.26,1.29-1.45,1.39C194.11,156.8,195.57,155.4,194.47,154.67Z"/><path class="cls-1" d="M190.86,161.71l-.35.91,1-.26C191,162.48,191.54,161.13,190.86,161.71Z"/><path class="cls-1" d="M193.5,149.12c-.5.35-1.13,1.18-1.7,1.7l.84,0A3,3,0,0,1,193.5,149.12Z"/><path class="cls-1" d="M191.8,150.82l-1.27.08C190.83,151.49,191.3,151.27,191.8,150.82Z"/><polygon class="cls-1" points="190.32 155.94 192.78 155.51 190.15 155.78 190.32 155.94"/><polygon class="cls-1" points="191.84 146.9 193.2 146.35 191.08 147.09 191.84 146.9"/><path class="cls-1" d="M190.5,145.61c1.1-.48,1.29-1.55,2.05-1.74-.47-.27-1.53,0-2.47.28C190.73,144.16,190.9,144.58,190.5,145.61Z"/><path class="cls-1" d="M188.65,144.46a8.54,8.54,0,0,0,1.43-.31A3.9,3.9,0,0,0,188.65,144.46Z"/><path class="cls-1" d="M190,149.74a3.47,3.47,0,0,0,1-1.52l-1.17,1.28Z"/><path class="cls-1" d="M189.8,149.55l0-.05a5.34,5.34,0,0,1-.3-.54Z"/><path class="cls-1" d="M190,149.81a.16.16,0,0,0,0-.07C189.88,149.87,189.84,149.92,190,149.81Z"/><path class="cls-1" d="M190.35,153.48c-1,.26-2.37.2-3,1.78C188.48,154.77,188.82,153.87,190.35,153.48Z"/><path class="cls-1" d="M188.58,151.41l.17.85a3.9,3.9,0,0,1,1.28-.94Z"/><polygon class="cls-1" points="187.92 151.45 188.58 151.41 188.51 151.1 187.92 151.45"/><path class="cls-1" d="M188.22,146.49a1.36,1.36,0,0,1-1.41-.3,2.2,2.2,0,0,0,.42,1.36C187.69,147.27,188.56,146.82,188.22,146.49Z"/><path class="cls-1" d="M188.87,148.07h-.12C188.66,148.19,188.65,148.25,188.87,148.07Z"/><path class="cls-1" d="M184.3,143l-.21.24.24-.17Z"/><path class="cls-1" d="M187,147.81c-.05.46.4.36.93.18a1.52,1.52,0,0,1-.73-.44C187,147.68,186.9,147.78,187,147.81Z"/><path class="cls-1" d="M187.32,144.06a7,7,0,0,0-.38,1C187.26,144.63,187.71,143.84,187.32,144.06Z"/><path class="cls-1" d="M189.05,147.69h.09C189.36,147.37,189.23,147.49,189.05,147.69Z"/><path class="cls-1" d="M189.05,147.69a4.87,4.87,0,0,0-1.09.3,2,2,0,0,0,.79.08A2.36,2.36,0,0,1,189.05,147.69Z"/><path class="cls-1" d="M174.93,148.84c1.28-.93,3-1.16,2.1.49,1.39-.15,5.18-3.77,7.06-6.09a3.07,3.07,0,0,1-2.26.79c-.51.75-.54,2.59-2.06,3-1.27-.29-.08-1,.28-1.9-1.29,1.55-3.06.77-5.2,2.74l1.36.07C175.86,148.2,175.1,148.39,174.93,148.84Z"/><path class="cls-1" d="M184.87,144.49l.35.12a5.35,5.35,0,0,1,1-2.19,3.57,3.57,0,0,0-1.9.65l.79,1.35Z"/><path class="cls-1" d="M186.1,145.71c-1.51.88-2.55.74-3.73,2.26.67.65,1.53-.38,2.46-.42-1.26-.9,1-.26,1.12-1.71a1.76,1.76,0,0,1,.86.35,4.31,4.31,0,0,1,.13-1.09l-.06.09h0l0,0c-.13.18-.22.28-.17.15s0,0,0,0a6.46,6.46,0,0,1-.56.36c0-.56.31-.33.56-.36l.21-.14v0l-1.66-.58C185.22,145,185.51,145.29,186.1,145.71Z"/><path class="cls-1" d="M184,156.94a1.27,1.27,0,0,1,.29-.28C184,156.71,183.9,156.78,184,156.94Z"/><path class="cls-1" d="M184.41,155.82c.25-.07.85-.43.93,0-.22.56-.65.51-1.08.88.49-.12,1.43-.19,1.67-1.23l-.25.06a6.75,6.75,0,0,1,1.55-2.84A25.76,25.76,0,0,0,184.41,155.82Z"/><path class="cls-1" d="M184.88,151l-1.44-.44-.77,1.42.68-.58C183.51,152.17,184.28,151.36,184.88,151Z"/><polygon class="cls-1" points="184.88 142.36 186.41 141.36 183.95 142.39 184.88 142.36"/><polygon class="cls-1" points="183.71 141.23 184.99 140.29 183.98 140.55 183.71 141.23"/><path class="cls-1" d="M112.14,81.55l-.58,0A1.28,1.28,0,0,0,112.14,81.55Z"/><path class="cls-1" d="M113.67,83.71l.66-.43C113.91,83.45,113.63,83.6,113.67,83.71Z"/><path class="cls-1" d="M159.09,110.21c.84-1.33,2.28-3.21.92-2.06l-1.27,1.19C159.21,109.45,159.24,109.79,159.09,110.21Z"/><path class="cls-1" d="M134.23,95.18l-.32.44,1.53-.73Z"/><path class="cls-1" d="M128.33,99.29l.45-1.24A3.88,3.88,0,0,0,128.33,99.29Z"/><path class="cls-1" d="M101.84,71.25l-1.66.74C100.6,72.51,101.13,71.74,101.84,71.25Z"/><path class="cls-1" d="M173,128.66a2.29,2.29,0,0,0,.12-1.55C172.66,128.16,171.76,129.44,173,128.66Z"/><path class="cls-1" d="M127.33,71.1a1.68,1.68,0,0,0-1,.39A1.38,1.38,0,0,0,127.33,71.1Z"/><path class="cls-1" d="M172.27,126.08c-.08.17-.1.28-.17.44.44.08.83.2,1,.59C173.43,126.33,173.5,125.68,172.27,126.08Z"/><path class="cls-1" d="M71,28.89a2,2,0,0,1,.09-.22C70.91,28.8,70.93,28.85,71,28.89Z"/><path class="cls-1" d="M75.59,6.12a1.45,1.45,0,0,1,.49.42C76.1,6.38,76,6.23,75.59,6.12Z"/><path class="cls-1" d="M180.28,135.67c.3.2.19-.08,0,0Z"/><path class="cls-1" d="M175.93,141.23a2.38,2.38,0,0,0-.75.41A3.26,3.26,0,0,1,175.93,141.23Z"/><path class="cls-1" d="M161.67,130.07v0C161.46,130.34,161.5,130.28,161.67,130.07Z"/><path class="cls-1" d="M180,136.56a1.86,1.86,0,0,0,.14-.66A1.76,1.76,0,0,0,180,136.56Z"/><path class="cls-1" d="M180.58,136a2.35,2.35,0,0,0,.06.34C180.89,136.19,181,136.05,180.58,136Z"/><path class="cls-1" d="M179.91,135.35a.8.8,0,0,1,.21.55.41.41,0,0,1,.16-.23A3.13,3.13,0,0,1,179.91,135.35Z"/><path class="cls-1" d="M91.81,48.28c0-.05,0-.09.08-.15C91.11,48.29,91.29,48.34,91.81,48.28Z"/><path class="cls-1" d="M139.4,114.28s.07,0,.09,0l0-.07Z"/><path class="cls-1" d="M137.63,114.11c2-.92,2-.52,1.88.08l3.7-3.4Z"/><path class="cls-1" d="M107.87,76.85l-.71,1.63c-2.67.75-2.43-.39-3.67,1.59,4.38-3.22,2.5,2.32,6.87-.91l-.56,1.15c-.06-.16-.33,0-.38-.14C108,82.64,113,78.41,113.29,80a1.58,1.58,0,0,1-1.15,1.53l1.74,0c.11.32-.68.84-.8.52l1.38,1.07-.13.09a21.64,21.64,0,0,1,2.8-.84c-.35.82-.59.18-1,.69l1.61-.07c-.88,1.16-2.43,1.39-2.67.75-3.75,4,1.55-.22.21,3.21l-1.09-.28c-2.09,2.34-.78,2.2-1.69,4.17.65-.8,2.6-4.55,4.3-4.57-.15.47-.08.89,1.12.66-1.52,1.18-.82,1.32-.32,1.78l-2,1.53c1,.12,2-.72,3.2-1.09.29.79-1.17,2.14-2.38,3.31.48,1.27,2-2.65,3.29-1.74-.12,1.45,1.17,1.41,3.17,1.48-.24,1.14-1.32.86-1.73,1.52l2-.72c.06.15-.47.5-.73.67,1,0,2-1.53,3.14-1.26,2.37-1.54-2.15,4,1,2.86-.4.66-1.31.86-2,1.53a14.16,14.16,0,0,0,5-.68l-.69,1.86c1.05-1.79,3.45-2.41,5.45-2.87.57-.79,1.06-1.47,1.27-1.83l1.93.24a5.44,5.44,0,0,1-2,1.3l.64-.18c-.44,1-1.77,1.67-3.11,2.27l.94-1.36a19.23,19.23,0,0,0-4.13,2.47,1.4,1.4,0,0,1,.82-.07,3.26,3.26,0,0,0-.89.57c-.19.2.35,0,1-.26l-2.06,2,.94-.64-.3,2.52c3.06-.74,7.08-2.45,9.27-1.56-2,.88-2.77,2-4.74,3.51,1.73-2-1.85-.57-2.08-1.73.12.6-.89,1.23-1.3,1.38l3.05,0c-1.63,1.22-1,1.25-1.31,2.16,2.93-2.76,3-.53,4.41-.68-1,.87-2.23,1.57-2.55.63-1.74,2.67,4.53-1.84,3.14.54-.17-.16-.08-.39-.68,0,1.28-.31,1.33,1.3.22,1.78l-.16-.16a3.66,3.66,0,0,0,5.64,1.75c-.33.29-3.35,2.37-3.95,2.72l10.69-4.9c-2.45,1.61-7.37,6.61-9.45,6.63-.1.54-.21,1.2,1.07,1.17.18-.46,3-3.09,3.37-3-2,2.73-1,1.58-2.45,4.19.26-.68,4.13-3.18,4.37-2.63-.59.35-3.53,2.83-4,3l4.44-1.62c-.86.21-3,2.3-3.84,3.34.6-.66.71,1,1.3,1.07l.44-1.13c.48,1.72,6-2.61,6.8-1.18-.85.41-4.8,3.14-4.74,4.14,2-1.12,9.77-5.5,12-5.46l-.86,1,1.86,0a128.21,128.21,0,0,1-13,5.48c-.44,1.13-1.11,1.09-.45,1.74a1.56,1.56,0,0,1-2,.59l.7,2.19c2.06-1.74,3.13-.37,4.85-1.82l-3.64-.12c2.06-1.73,6.84-3.64,7.41-2.15-.6,1-3.95,2.72-4.63,3.3.85-.41,2.28,0,1.85.56l-1.53.38c-.28,1.29,3.66-1.11,2.27,1.27.08.39-2.08,3-.79,2a78.58,78.58,0,0,1,11.51-9.41,23.48,23.48,0,0,1-2.12,4.51c-1.53,1.94-5,2.86-6.37,4.52a6,6,0,0,1,1.82-.82c-.27.68-1.89,1.29-1.13,1.71,2.22-1.58.82,1.43,2-1.12,1.1.13.08,1,.74,1.65,1.2-1.32,5.23-3.05,6.32-2.92a8.92,8.92,0,0,0-1.45,1.41c.8,1.42.36,2.86,1.27,4.05-.43.52-.61,1.58-1.73,2.06.52-.12,1.37-.54,1.7-.22-1.3,2.16-.92-.58-2.73,1.71,1.28-.94,2.46-.42,3.65-.51,1.79-1.67-.58-1.49-1.76-1.39,2.65-2.09,6.14-3.38,8.33-3.11,1.43.45-1.38,1.77-.87,1.64,1,2.2,5.86-2.08,5.15.95-1.21,1.93-3.34,2.67-4.45,3.77-1.27-.29.11-2.07-.39-2.55l-.27,1.29c-.76.19-1.61,0-1.35-.68-1.11,1.7,2.15,3.33,1.87,5.85.77-.2,1.69-.22,2.21-1l-.59-.26c1-1.48,2.55-.64,2.74-1.71,1.43-.15,3.47-.67,3.36.78l-1.8,1.68c.55-.46.71-1.46-.06-1.23,1.13-.32-1.58,3.35,1.24,1.75l.87-1.65c1.44-.16,4.07-1,4.06.2,1.63-1.84-.36,0,1.45-2.29-2.41,2.65-1.4-2-3.72,1,2.15-2.58.35-1.81,2-4.26-.61.52-1,1.21-1.19.34a4.67,4.67,0,0,1-.67.3.22.22,0,0,1,0-.08l0,.1c-.11,0-.13.06,0,0a3.8,3.8,0,0,1-.71,1.08c-1.71.84-2.45-.19-3.47.06,0-.61.85-.42,1.36-1.15l-1.52.38c1.37-1.16,1.56-2.84,3.08-2.61l-.56-.84c.42-1.09.23-2-.67-1.91,0-.61-2.31.29-.94-.25l-1.86-.56.35-.29c-.79-1.36-4.32-.68-2.88-4.08-.68-.13-1.45-.22-1.59-1.22l1.11-1.1c-.84-.19,0-2.55-1.47-1.77,2.84-3.16-1.3-3.14-1.45-4.53l-1.63,1.22c-.41-.71-1.34-1-2.61-1.27L163.09,119c-1.7.22-.38-2.55-1.38-3.53.6-.35.67,0,.5.49,2.17-3.79-4.47-.92-3.06-3.92-.75.11-.74-.24-.54-.73,0,0,.07,0,.13,0a.31.31,0,0,0-.08-.13c.14-.32.32-.68.43-1a4.49,4.49,0,0,0-.49.93,2.17,2.17,0,0,0-1.26-.47l1.4-1.33-.1,0c.3-.77-.93.3-1.93,1.37a4.33,4.33,0,0,0-1.27.27c2.24-2.19-1.51-.24.81-2.65-1.45.77-2.28-1-5.1,1,.34-.28.43-.51.59-.35,0-.61,0-1.23-1-1l1.8-1.67-3.23,1.21a5,5,0,0,1,3.18-2.83c-3.22.59-1.62-.29-4.68.46l1.29-.93c-.33-.32-2.45.4-1.59-.63,1.74-2.66-2.81-4.27-2.23-8.08-3.37,3.27.89-2.25-2-.12.77-.8,1-1.47,2-1.72-1.68-.4.14-2.67-2.84-1.54.78-.8,1.46-.76,1.89-1.28-.26.07-1,.26-.59-.26s.85-.41,1.36-.54c-1-1-3.76,1-6.34,2.88.77-1.48.38-1.62-1.58-.74.68-.83,1.29-1.82,2.11-1.37-.17-.48-.6-3.27-2.65-1.74.42-.51-.26-.65-.57-.56-.55-1-.42-1.17-1.27-1.86l-.15.49c-2.69,1.56-1.08-.28-1.9-.73l.26-.17c.56-2.92-1.36,0-.54-3.11l-1.45,1.26c-3.37,2.39.87-2.85-1.07-2.77l-.61,1c-1.5.38,3.38-4.8,3.41-5.6.2-.33.58-.19.91-.2.93-2.77-2.12,1.37-3.32.78.94-1,2.9-1.89,2.61-2.68.62-1-4.92.84-3.54-1.63-.68.83-1.36,1.66-2.32,1.7-.82-.45,1.7-4.25-1.37-2.84a2.62,2.62,0,0,1,.55-.63c-1.07,0-2.42-.81-4.07,0,4.87-4.54-5-1.25-.2-5l-1.49-1.39.52-.34c-.47-1.27-1.9-.73-3.34-.2.15-.49.73-.66,1-.84-.18-2.24-.5-2.23-3.87-1.62l1.47-1.34c-1.18.37.79-4-2.16-4.1a2.31,2.31,0,0,1,.82-.38c-3.11-.22,1.32-7.3-4.86-3.49h-2.25c.64,1.75-2.64,1.71-3.14,3-.76-.3.62-2.76,1.44-2.31l-.21.33c3.17-2-.29-2.56,1.77-4.09-2.28-2.65-2.71-6.61-4.57-9.3l-2.09,2.09-.56-1c.35-.65,1.56-1.72,2-1,1.05-1.35-1.94-.23-2.46.14,0-2,3.09-1.59,2.84-2l-.57-.39-.18.33c-1.28.3-2.31,1-2.79.17.08-.85,1.23-1.35,1.17-1.61.17-.13.2-.25-.16-.35l-.68-1.29-1.48,1.87c-1.29.19-.73-1.15-2.39,1,2.6-3.23-2.13-5.13-1.5-6.36-1.88.32-2.39-.4-2.89-1.39-.22.51-2.18,2.23-2.5,1.29,4.46-3,.79-2.79,3.38-5.74-1.61,2.1-2.13-1.74-4.35,1.32-.14-.88,1.56-1.26,2.19-2.5-2.78-.21-1.44-4.08-3.4-5.49-.58.4-1.2,1.37-2.33,1.61l2-3.11c-.55-.15-3.47,2.14-2,0-.4.45-1,1.13-1.37,1,0-5.68-7.86-5.62-5.55-13.18-.7,1.32-1.06,1.07-1.39.73C76,7,74.69,7.59,74,8.22l.92-3.14c-2.31,1.34-1.4-1.52-3.53-.14l.74.21c-2.86,1.17-4.57,4.94-7.68,7.18,3.24-1.35-2.53,5,2.23,3.18-.42.74-1.15.53-1.75,1.21,1.54-.7,2.08-.55,2,.57l-.39.17c1.77,1.64,1.1,3.43,1.88,6.2l1.38-1.31c.14.61-.25,1.06-.47,1.57,2.68-1.23-.85-1.38,2-2.83-2.59,2.95,2.41,3.23-.75,6.31.52.71,1.59-1.54,2.1-.83l-.79.91,1.34-.76c.15.62-.84,1.75-1.63,2.38,0-.18-.46-.14-.62-.21-.65,1.44,1.66,1.38,1.46,1.86l.06-1.11c2.35,1.23,2.9,4.5,6.23,4.87l.6-.68c2.4.39.09,1.72,1.89,2.8L81,36.7c1-.23,1.62-.1,1.87.39-1.13.25-1.05,2-2.36,2.17,2.58.44,1.68-.1,5.09-1.12l-1,1.14c1.33-.48,1.91-.88,2.81-.34-1.49.14-1.41,1.87-3.29,2.19-1.33,3.59,4.44.4,1.26,4,3.82-1.76.72-2.79,1.74-2.91.8-1.16,2.9-1.26,3-.5.32.58-3.48,4.09-2.42,5.34-.09-.14-.34,0-.42-.1-.46,1.12,1.85.08,1,1.72,2.23-1.18.49.86,3.07-1L89.81,47c1.18.17,4.6-1.46,4,.75a6.45,6.45,0,0,1-2,.54c-.49.9,1,.25.47,1.18-2.58,1.84-1.66-1-4.13-.28-.79,1.17,2.87,0-.13,1.7,3.86-2.14.55,1.62,3.87.46l-1.55,1.1c.34,0,1.28-.3,1.44,0l-2.31,1c2.21-.56-.4,2.5,1,2.48-1.15-1.39,1.57-1.71,2.2-3.16,3.37.21-3.15,4-.91,5.46-.41-.1.13-1.7,1.15-1.82a4.43,4.43,0,0,1-.82,2.4c1.32,1.07,1.39-1.4,2.74-1.55-1.49,1.86,1.24.07,2.27.19l-1.52,1.18c.17,2.25,3.49-2.06,3.34.2L96.39,59.9l1.09.28-1.85,1.2c1.88-.24,1.72.26,1.81,1.38,1-1,2.85-2,3.41-1.42-.56,1.15-1.65.87-.71,1.64-1.12.52-2.5,1.22-1.4-.28-.53.35-1.12.54-1.65.87-.67,1.29.71,1.4,1,1.73a.79.79,0,0,1,.07-.64l3.17-.28a2.48,2.48,0,0,1-1.58,1c.38.14,1.22-.21,1.67.09-1.32.86-2.59,1.87-3.61,1.75l2.37.23c-.47.5-1,1.81-1.55,2-.18,1.28,3.76-.11,3.53,1.59a1.39,1.39,0,0,1,.92-.15c.41,1.1-.5,3.07,2,2.82l-1.76,2.32c1.14.43,2.17-3,4.08-2.25,1.46.43-1.62,1.83-2,2.65,1.5-.38,4.43-1.3,3.32,1C108.1,77.48,108.25,77,107.87,76.85Zm8.89,9.45c-.47,0-1.77.42-1-.42C117.7,84.75,117,85.57,116.76,86.3ZM132.47,99c-.62.25-.55-.17-.17-.88C132.57,98.16,132.68,98.42,132.47,99Zm44.26,34.75-.09,0C176.88,132.83,176.77,133.17,176.73,133.7Zm.06,1.43a1.42,1.42,0,0,0,.67-.46c-.44.24-.62.06-.7-.26C176.41,134.79,176.23,135.12,176.79,135.13ZM99.86,37.46,99.6,38C98.85,37.88,99.33,37.69,99.86,37.46Z"/><path class="cls-1" d="M129,98.82a5.89,5.89,0,0,1,.76-.73A1.27,1.27,0,0,0,129,98.82Z"/><path class="cls-1" d="M102.15,71.11s0,0,0,0l-.3.18Z"/><path class="cls-1" d="M152.83,131.14a2.41,2.41,0,0,1,.5-1C153,130.44,152.71,130.77,152.83,131.14Z"/><path class="cls-1" d="M183.16,137.91l-.85-.27c.29.22,0,.58-.09.91C182.57,138.26,183,137.74,183.16,137.91Z"/><path class="cls-1" d="M177.78,150.36c.26-.06.17.17.42.1l.69-.58A.68.68,0,0,0,177.78,150.36Z"/><path class="cls-1" d="M178.55,142.42c-1.23,1.05-.51,1.08,0,1.3,0,0-.06,0-.06-.08C180.42,142.36,179.48,142.39,178.55,142.42Z"/><path class="cls-1" d="M178.71,143.78a.52.52,0,0,1,.33.35C179.8,143.61,179.07,143.86,178.71,143.78Z"/><path class="cls-1" d="M178.54,135.61c-.18.46,1.73-1.16,1.29-.64C181.62,133.9,176.85,135.23,178.54,135.61Z"/><polygon class="cls-1" points="174.62 146.06 176.08 144.68 174.63 145.45 174.62 146.06"/><path class="cls-1" d="M173.23,141.93l.08,1a.88.88,0,0,1,.67-.25C173.72,142.24,173.68,141.55,173.23,141.93Z"/><path class="cls-1" d="M174,142.68a.57.57,0,0,0,.68.32A1.14,1.14,0,0,0,174,142.68Z"/><polygon class="cls-1" points="173.44 145.55 173.62 145.1 173.37 144.54 173.44 145.55"/><path class="cls-1" d="M168,134.68l-1-.35c-.6.35-.78.8-.36.9C167.15,135.1,167.57,135.2,168,134.68Z"/><path class="cls-1" d="M165.39,140.23a5,5,0,0,1,1-1.25l-2,1.51Z"/><path class="cls-1" d="M163.3,138.51c-.6.36-2.37.19-1.54,1C162.36,139.16,163.37,139.52,163.3,138.51Z"/><polygon class="cls-1" points="157.33 125.83 157.5 125.99 160.68 123.45 157.33 125.83"/><path class="cls-1" d="M142.23,122.35c-.11,1.45,2.13-1.34,1.77.17.92-.39.3-1.24,1.11-1.54C143.91,121.09,144.15,120.47,142.23,122.35Z"/><path class="cls-1" d="M145.11,121a4.79,4.79,0,0,0,.69-.12A1.75,1.75,0,0,0,145.11,121Z"/><polygon class="cls-1" points="75.78 2.78 76.03 1.72 75.22 2.91 75.78 2.78"/><path class="cls-1" d="M72.58,3.57l2-1.71L72.42,3C72.61,3,73,3.12,72.58,3.57Z"/><path class="cls-1" d="M113.8,91l.53-.34c.47-.5.41-.66.29-1Z"/><polygon class="cls-1" points="109.59 82.42 109.65 82.58 111.32 80.9 109.59 82.42"/><path class="cls-1" d="M102.41,78c.12.32.76.3.88.61C102.53,78.34,104.67,76.16,102.41,78Z"/></g></g></svg>